<svg width="520" height="420" viewBox="0 0 520 420" fill="none" xmlns="http://www.w3.org/2000/svg">
  <defs>
    <linearGradient id="screenGlow" x1="199" y1="52" x2="349" y2="235" gradientUnits="userSpaceOnUse">
      <stop stop-color="#FF7AC6"/>
      <stop offset="0.55" stop-color="#8B3DFF"/>
      <stop offset="1" stop-color="#4D14D9"/>
    </linearGradient>
    <linearGradient id="screenBody" x1="185" y1="68" x2="336" y2="250" gradientUnits="userSpaceOnUse">
      <stop stop-color="#3B166F"/>
      <stop offset="1" stop-color="#1B103E"/>
    </linearGradient>
    <linearGradient id="baseGlow" x1="143" y1="187" x2="367" y2="345" gradientUnits="userSpaceOnUse">
      <stop stop-color="#FF8C6E"/>
      <stop offset="0.45" stop-color="#FF5CA8"/>
      <stop offset="1" stop-color="#7C3BFF"/>
    </linearGradient>
    <linearGradient id="baseBody" x1="159" y1="193" x2="328" y2="335" gradientUnits="userSpaceOnUse">
      <stop stop-color="#4E1A99"/>
      <stop offset="1" stop-color="#26114E"/>
    </linearGradient>
    <linearGradient id="cupBody" x1="88" y1="94" x2="131" y2="171" gradientUnits="userSpaceOnUse">
      <stop stop-color="#FF77CA"/>
      <stop offset="0.55" stop-color="#9F3FFF"/>
      <stop offset="1" stop-color="#5B1BD4"/>
    </linearGradient>
    <radialGradient id="shadow" cx="0" cy="0" r="1" gradientUnits="userSpaceOnUse" gradientTransform="translate(261 316) rotate(90) scale(18 104)">
      <stop stop-color="#6B2EFF" stop-opacity="0.35"/>
      <stop offset="1" stop-color="#6B2EFF" stop-opacity="0"/>
    </radialGradient>
  </defs>

  <ellipse cx="261" cy="316" rx="104" ry="18" fill="url(#shadow)"/>
  <ellipse cx="107" cy="177" rx="40" ry="10" fill="#5B1BD4" fill-opacity="0.18"/>

  <path d="M147 266L259 202L378 261L266 325L147 266Z" stroke="#FF8C6E" stroke-width="3"/>
  <path d="M111 281L139 265L165 280L137 296L111 281Z" stroke="#FF8C6E" stroke-width="3"/>
  <path d="M402 257L429 241L456 256L428 272L402 257Z" stroke="#FF8C6E" stroke-width="3"/>
  <path d="M448 307L463 298L478 307L463 316L448 307Z" stroke="#FF8C6E" stroke-width="3"/>

  <path d="M172 223L299 150L396 221L269 294L172 223Z" fill="url(#baseGlow)"/>
  <path d="M181 225L299 157L387 221L269 289L181 225Z" fill="url(#baseBody)"/>
  <path d="M203 241L302 184L358 225L259 282L203 241Z" fill="#D885D9" fill-opacity="0.34"/>
  <path d="M247 246C255 241 267 241 275 246C282 250 282 257 275 261C267 266 255 266 247 261C240 257 240 250 247 246Z" fill="#8B3DFF" fill-opacity="0.75"/>

  <path d="M212 85L335 156L289 264L166 193L212 85Z" fill="url(#screenGlow)"/>
  <path d="M219 95L327 157L286 251L178 189L219 95Z" fill="url(#screenBody)"/>
  <path d="M228 111L308 157L279 222L199 176L228 111Z" fill="#2A1458" stroke="#B05CFF" stroke-width="2"/>

  <path d="M234 123L296 158L274 208L212 173L234 123Z" fill="#461A87"/>
  <rect x="230.5" y="139.5" width="34" height="4" rx="2" transform="rotate(29.8 230.5 139.5)" fill="#FF9C5A"/>
  <rect x="252.5" y="152.5" width="18" height="4" rx="2" transform="rotate(29.8 252.5 152.5)" fill="#FFD166"/>
  <rect x="263.5" y="133.5" width="41" height="4" rx="2" transform="rotate(29.8 263.5 133.5)" fill="#F7F7F8"/>
  <rect x="246.5" y="171.5" width="33" height="4" rx="2" transform="rotate(29.8 246.5 171.5)" fill="#F7F7F8"/>
  <rect x="224.5" y="161.5" width="12" height="4" rx="2" transform="rotate(29.8 224.5 161.5)" fill="#7CF3FF"/>
  <rect x="256.5" y="184.5" width="22" height="4" rx="2" transform="rotate(29.8 256.5 184.5)" fill="#FF7AC6"/>
  <rect x="238.5" y="190.5" width="44" height="4" rx="2" transform="rotate(29.8 238.5 190.5)" fill="#B7C4FF"/>

  <path d="M191 231L302 168L382 226L271 290L191 231Z" fill="#3A126E" fill-opacity="0.92"/>
  <path d="M196 233L302 173L377 227L271 287L196 233Z" fill="none" stroke="#FF86B2" stroke-opacity="0.5" stroke-width="2"/>
  <path d="M229 253L302 211L335 235L262 277L229 253Z" fill="#9F52FF" fill-opacity="0.2"/>
  <path d="M225 246L286 211" stroke="#5E2BE8" stroke-width="2" stroke-linecap="round"/>
  <path d="M236 252L298 216" stroke="#5E2BE8" stroke-width="2" stroke-linecap="round"/>
  <path d="M247 258L309 223" stroke="#5E2BE8" stroke-width="2" stroke-linecap="round"/>
  <path d="M259 264L321 228" stroke="#5E2BE8" stroke-width="2" stroke-linecap="round"/>

  <path d="M83 102L124 102L120 171L88 171L83 102Z" fill="url(#cupBody)"/>
  <path d="M82 102C82 95 92 89 104 89C116 89 126 95 126 102C126 109 116 115 104 115C92 115 82 109 82 102Z" fill="#7B2FFF"/>
  <ellipse cx="104" cy="102" rx="18" ry="8" fill="#E6A8FF"/>
  <ellipse cx="104" cy="103" rx="15" ry="6" fill="#6B2EFF"/>
  <path d="M124 109C132 112 136 117 136 123C136 131 129 137 120 139" stroke="#FF9C5A" stroke-width="3" stroke-linecap="round"/>
  <path d="M91 176L110 164L129 176L110 188L91 176Z" stroke="#FF8C6E" stroke-width="3"/>

  <path d="M103 82C95 69 98 58 108 47" stroke="#AFA7FF" stroke-width="3" stroke-linecap="round"/>
  <path d="M110 81C104 67 108 55 119 41" stroke="#AFA7FF" stroke-width="3" stroke-linecap="round"/>
  <path d="M114 86C110 72 115 62 125 53" stroke="#AFA7FF" stroke-width="3" stroke-linecap="round"/>
</svg>
